<svg width="25" height="24" viewBox="0 0 25 24" fill="none" xmlns="http://www.w3.org/2000/svg">
<path d="M10.5 3.19998C8.9357 3.56262 7.49691 4.33718 6.33287 5.44332C5.16883 6.54946 4.32194 7.94689 3.88002 9.49066C3.43811 11.0344 3.41728 12.6683 3.81968 14.2229C4.22209 15.7774 5.03308 17.196 6.16854 18.3314C7.304 19.4669 8.72257 20.2779 10.2771 20.6803C11.8316 21.0827 13.4655 21.0619 15.0093 20.62C16.5531 20.178 17.9505 19.3311 19.0567 18.1671C20.1628 17.0031 20.9374 15.5643 21.3 14C21.3 13.7348 21.1946 13.4804 21.0071 13.2929C20.8196 13.1053 20.5652 13 20.3 13H13.5C12.9696 13 12.4609 12.7893 12.0858 12.4142C11.7107 12.0391 11.5 11.5304 11.5 11V3.99998C11.4876 3.88151 11.4517 3.76668 11.3946 3.66215C11.3375 3.55763 11.2601 3.46548 11.1671 3.39107C11.0741 3.31665 10.9672 3.26144 10.8527 3.22864C10.7382 3.19584 10.6183 3.1861 10.5 3.19998Z" stroke="#94A3B8" stroke-width="1.5" stroke-linecap="round" stroke-linejoin="round"/>
<path d="M15.5 3.5C16.7697 3.94708 17.923 4.6733 18.8748 5.62516C19.8267 6.57702 20.5529 7.73028 21 9H16.5C16.2348 9 15.9804 8.89464 15.7929 8.70711C15.6054 8.51957 15.5 8.26522 15.5 8V3.5Z" stroke="#94A3B8" stroke-width="1.5" stroke-linecap="round" stroke-linejoin="round"/>
</svg>
